# xmcd
#
# Track frame offsets: 
#        150
#        29135
#        49677
#        70932
#
# Disc length: 1227 seconds
#
# Revision: 0
# Processed by: cddbd v1.5.2PL0 Copyright (c) Steve Scherf et al.
# Submitted via: ExactAudioCopy v1.3
#
DISCID=3504c904
DTITLE=John Verity Band - Got The Blues For Xmas
DYEAR=2014
DGENRE=Blues Rock
TTITLE0=Merry Christmas Baby
TTITLE1=Santa Claus Is Back In Town
TTITLE2=Run Rudolph Run
TTITLE3=Blue Christmas
EXTD=
EXTT0=
EXTT1=
EXTT2=
EXTT3=
PLAYORDER=
